<?xml version="1.0" standalone="no"?>
<!DOCTYPE svg PUBLIC "-//W3C//DTD SVG 20010904//EN"
 "http://www.w3.org/TR/2001/REC-SVG-20010904/DTD/svg10.dtd">
<svg version="1.0" xmlns="http://www.w3.org/2000/svg"
 width="2022.000000pt" height="836.000000pt" viewBox="0 0 2022.000000 836.000000"
 preserveAspectRatio="xMidYMid meet">

<g transform="translate(0.000000,836.000000) scale(0.100000,-0.100000)"
fill="#000000" stroke="none">
<path d="M19710 8220 c-417 -43 -870 -307 -1234 -720 -128 -145 -226 -280
-556 -765 -157 -231 -344 -505 -415 -610 -71 -104 -209 -307 -305 -449 -97
-143 -180 -261 -186 -263 -11 -3 -823 1248 -840 1297 -34 93 -3 210 75 283 55
52 124 77 208 77 l53 0 0 35 0 35 -1135 0 -1135 0 0 -33 0 -34 103 -7 c227
-14 409 -97 558 -253 70 -73 89 -101 341 -493 541 -840 933 -1448 960 -1488
17 -24 26 -47 22 -55 -4 -6 -95 -133 -203 -282 -107 -148 -394 -544 -636 -880
-861 -1191 -846 -1171 -1055 -1420 -263 -314 -502 -492 -790 -590 -61 -21
-315 -75 -351 -75 -5 0 -9 -16 -9 -35 0 -41 0 -41 155 -54 129 -10 339 7 488
39 188 41 440 160 642 303 180 128 432 371 565 546 19 25 65 84 101 131 36 47
234 324 439 615 205 292 489 694 630 895 142 201 263 375 271 388 8 12 17 21
21 20 4 -2 60 -86 126 -188 670 -1044 801 -1250 817 -1280 29 -57 26 -153 -8
-222 -51 -103 -143 -158 -264 -158 l-54 0 3 -32 3 -32 1100 2 c605 1 1117 2
1138 2 36 0 38 2 35 28 -3 25 -7 27 -48 29 -236 12 -419 84 -577 227 -78 70
-135 147 -305 411 -85 132 -383 593 -663 1025 -280 432 -508 789 -508 795 0 6
105 163 234 350 130 187 336 486 459 665 123 179 278 404 345 500 67 96 177
256 245 355 168 246 330 472 414 580 245 315 452 502 681 614 124 61 212 88
322 98 l63 6 0 32 c0 31 -2 33 -46 39 -58 8 -195 6 -294 -4z"/>
<path d="M1400 7523 c-157 -17 -412 -93 -606 -181 l-125 -57 7 -30 c3 -16 7
-31 8 -32 1 -1 46 9 101 23 136 35 360 44 455 20 257 -65 493 -269 689 -594
71 -118 191 -357 191 -380 0 -9 -92 -226 -204 -482 -112 -256 -446 -1016 -741
-1690 -295 -674 -555 -1253 -577 -1287 -48 -74 -153 -175 -229 -220 -71 -42
-215 -83 -291 -83 l-59 0 3 -33 3 -32 695 3 c382 1 703 2 713 2 12 0 17 8 17
30 0 28 -2 30 -39 30 -21 0 -70 9 -107 21 -56 17 -79 31 -120 73 -58 57 -74
98 -74 189 0 71 20 126 229 617 l150 355 789 3 789 2 103 -272 c143 -380 226
-581 316 -759 286 -572 613 -988 1011 -1285 184 -137 360 -235 558 -309 314
-117 557 -157 828 -136 253 20 444 66 654 159 102 46 108 50 111 80 4 38 5 38
-120 16 -111 -19 -311 -14 -428 11 -104 22 -295 87 -371 126 -369 185 -760
662 -1102 1345 -145 289 -237 503 -529 1224 -99 245 -252 623 -340 840 -88
217 -222 548 -298 735 -159 395 -264 629 -359 806 -273 505 -598 864 -926
1024 -212 104 -353 136 -585 133 -85 0 -171 -3 -190 -5z m973 -1858 c50 -145
123 -341 287 -775 250 -657 300 -792 300 -801 0 -5 -269 -9 -675 -9 -371 0
-675 2 -675 5 0 7 93 231 275 665 72 173 201 480 285 683 84 202 154 366 155
365 2 -2 23 -61 48 -133z"/>
<path d="M7395 7253 c-100 -10 -604 -88 -945 -147 -389 -66 -813 -127 -1030
-146 -223 -20 -212 -17 -208 -53 l3 -31 108 3 c88 2 119 -1 171 -19 126 -42
206 -150 226 -305 7 -53 10 -675 8 -1875 -3 -1701 -4 -1798 -21 -1850 -26 -79
-84 -158 -155 -212 -74 -56 -136 -77 -255 -85 l-88 -6 3 -31 3 -31 165 1 c91
0 546 2 1013 2 l847 2 0 30 c0 30 0 30 -57 30 -209 2 -380 116 -434 291 -18
59 -19 131 -19 2054 l0 1993 28 6 c84 18 431 66 512 71 103 8 257 -6 358 -31
337 -84 569 -342 646 -719 41 -203 46 -460 11 -660 -44 -252 -171 -492 -337
-633 -73 -62 -196 -125 -288 -148 -74 -19 -226 -21 -310 -5 -118 23 -231 102
-288 201 -14 25 -26 46 -27 48 -5 7 -55 -22 -55 -32 0 -6 7 -36 15 -66 47
-176 173 -327 350 -417 179 -92 375 -128 640 -120 238 7 400 46 614 148 392
186 650 524 742 973 57 276 42 587 -38 831 -72 221 -219 431 -398 570 -215
166 -479 274 -812 331 -214 36 -532 53 -698 37z"/>
<path d="M12105 7253 c-140 -16 -559 -81 -915 -142 -423 -72 -840 -131 -1055
-151 -243 -22 -226 -18 -219 -48 4 -15 8 -29 10 -31 2 -2 49 -3 106 -2 119 2
189 -15 256 -61 55 -38 118 -133 132 -201 7 -36 9 -618 8 -1912 l-3 -1860 -31
-66 c-35 -73 -107 -151 -178 -193 -54 -32 -156 -56 -238 -56 -58 0 -58 0 -58
-30 0 -29 1 -30 53 -31 28 0 462 0 962 0 501 1 934 1 963 1 51 0 52 0 52 30
l0 30 -62 0 c-185 1 -344 96 -417 250 -25 52 -26 65 -31 270 -7 301 -5 3808 2
3816 10 10 426 72 534 79 112 8 263 -6 369 -34 262 -69 446 -225 561 -475 78
-171 107 -336 107 -606 -1 -287 -37 -456 -139 -649 -165 -314 -437 -474 -746
-440 -107 12 -164 31 -238 80 -52 35 -127 125 -142 170 -5 15 -58 -10 -58 -29
0 -29 33 -129 62 -186 69 -137 168 -231 323 -305 98 -47 159 -65 312 -91 467
-81 974 71 1288 386 272 273 409 636 408 1084 -1 255 -47 455 -150 649 -106
201 -253 356 -448 474 -300 183 -661 272 -1127 281 -117 2 -231 2 -253 -1z"/>
<path d="M4648 790 c-52 -28 -72 -63 -78 -135 -5 -59 -5 -60 -38 -63 -32 -3
-33 -5 -30 -40 3 -33 6 -36 33 -37 l30 0 3 -197 2 -198 50 0 50 0 2 197 3 198
60 0 60 0 3 37 3 37 -63 3 -63 3 -3 42 c-5 71 42 99 119 69 10 -5 20 4 33 30
15 34 16 39 2 53 -26 25 -133 26 -178 1z"/>
<path d="M2769 757 c-109 -41 -156 -134 -115 -230 21 -52 68 -83 186 -122 114
-38 150 -64 150 -110 0 -12 -12 -32 -26 -46 -23 -21 -35 -24 -102 -24 -81 1
-139 21 -189 68 -26 24 -24 25 -51 -29 l-21 -41 22 -21 c43 -41 137 -75 217
-80 127 -7 207 28 248 108 18 35 22 55 18 93 -10 88 -52 123 -215 178 -47 16
-95 39 -108 51 -32 30 -30 71 5 98 23 19 36 21 93 18 41 -3 87 -15 122 -31
l55 -25 21 50 20 49 -57 27 c-69 31 -212 41 -273 19z"/>
<path d="M5250 660 l0 -70 -36 0 c-35 0 -35 -1 -32 -37 3 -36 4 -38 36 -35
l32 4 1 -139 c0 -76 6 -156 13 -178 16 -54 63 -85 128 -85 63 0 122 24 114 46
-3 9 -9 27 -12 41 -5 17 -11 22 -23 18 -44 -17 -72 -17 -91 0 -18 16 -20 31
-20 150 l0 133 31 6 c17 3 49 6 70 6 38 0 39 1 39 38 l0 37 -70 -3 -70 -4 0
71 0 71 -55 0 -55 0 0 -70z"/>
<path d="M3765 610 c-59 -7 -101 -27 -144 -71 -44 -44 -63 -93 -64 -169 -2
-152 99 -250 257 -250 150 0 250 101 249 252 0 160 -122 257 -298 238z m125
-109 c89 -64 94 -193 11 -264 -27 -23 -42 -27 -91 -27 -48 0 -64 4 -90 26 -42
36 -60 74 -60 129 0 127 133 205 230 136z"/>
<path d="M7305 610 c-53 -8 -135 -44 -135 -59 0 -5 8 -23 17 -39 l17 -29 50
23 c104 49 216 16 216 -64 0 -17 -10 -20 -109 -25 -138 -7 -183 -27 -213 -93
-31 -72 -6 -144 64 -184 54 -30 171 -26 217 8 38 28 41 28 41 -3 0 -23 3 -25
50 -25 l50 0 0 186 c0 191 -3 207 -44 252 -43 48 -122 67 -221 52z m165 -303
c0 -41 -20 -70 -64 -91 -94 -44 -205 11 -166 84 17 31 44 39 143 39 l87 1 0
-33z"/>
<path d="M8966 609 c-65 -10 -123 -54 -160 -119 -25 -45 -29 -63 -29 -125 0
-62 4 -80 30 -126 44 -78 100 -111 201 -117 65 -4 87 -1 129 18 28 12 59 30
68 40 16 17 15 20 -5 48 l-23 31 -36 -25 c-82 -54 -194 -35 -240 40 -12 19
-20 40 -16 46 4 6 75 10 186 10 l179 0 0 58 c0 72 -34 149 -83 186 -22 17 -57
30 -93 36 -33 6 -59 9 -59 9 0 -1 -22 -5 -49 -10z m154 -115 c16 -16 32 -44
36 -61 l7 -33 -142 0 c-158 0 -161 2 -121 68 27 44 72 63 138 59 43 -3 59 -9
82 -33z"/>
<path d="M10505 610 c-64 -7 -104 -29 -148 -81 -85 -99 -71 -275 28 -357 44
-36 95 -52 166 -52 76 0 125 16 167 55 l37 34 -28 28 c-23 24 -30 26 -45 15
-92 -67 -215 -53 -258 30 -21 41 -22 124 -1 163 27 53 53 69 120 73 51 3 70
-1 108 -21 l47 -25 21 29 c29 38 27 45 -18 75 -44 29 -120 42 -196 34z"/>
<path d="M11388 610 c-127 -21 -206 -130 -195 -266 6 -84 43 -147 111 -189 46
-28 57 -30 141 -30 84 0 95 2 141 30 63 39 103 104 111 177 19 186 -119 309
-309 278z m137 -109 c85 -48 93 -195 16 -265 -30 -28 -127 -34 -170 -12 -59
31 -91 113 -71 185 28 104 130 146 225 92z"/>
<path d="M12413 611 c-40 -10 -82 -36 -105 -65 -17 -21 -18 -20 -18 22 l0 42
-50 0 -50 0 -1 -212 c-1 -117 -2 -226 -3 -243 -1 -29 0 -30 52 -33 l52 -3 0
143 c0 158 10 193 63 232 43 32 120 28 155 -7 27 -27 27 -29 32 -195 l5 -167
53 -3 52 -3 0 146 c0 89 4 155 11 168 34 65 102 97 163 77 66 -22 70 -34 76
-219 l5 -166 53 -3 52 -3 0 163 c0 90 -5 181 -11 203 -25 89 -77 128 -174 128
-75 0 -129 -24 -158 -69 -12 -19 -24 -34 -27 -33 -3 0 -14 14 -25 31 -36 58
-126 88 -202 69z"/>
<path d="M13751 609 c-25 -5 -62 -22 -83 -39 l-38 -31 0 36 0 35 -55 0 -55 0
0 -305 0 -305 55 0 55 0 0 95 0 95 45 -32 c34 -24 58 -33 103 -36 111 -8 195
37 235 128 26 58 27 167 2 228 -22 55 -96 120 -144 127 -20 4 -45 8 -56 9 -11
2 -40 0 -64 -5z m118 -108 c78 -56 81 -192 7 -260 -39 -37 -128 -41 -176 -9
-95 64 -89 227 10 280 43 24 117 18 159 -11z"/>
<path d="M14649 610 c-36 -6 -119 -40 -137 -55 -2 -1 6 -18 18 -37 l20 -35 47
23 c68 35 143 33 182 -3 16 -16 32 -40 35 -54 l6 -26 -114 -6 c-121 -6 -153
-16 -196 -62 -34 -36 -36 -129 -4 -172 49 -67 168 -85 260 -38 27 14 50 25 51
25 2 0 2 -10 0 -22 -2 -21 3 -23 51 -26 l52 -3 0 163 c0 174 -8 226 -37 267
-38 52 -138 78 -234 61z m163 -310 c-4 -43 -33 -76 -80 -91 -43 -14 -107 -6
-133 17 -35 31 -19 96 26 107 11 3 58 4 105 4 l85 -2 -3 -35z"/>
<path d="M15653 609 c-25 -6 -58 -24 -79 -45 -20 -19 -39 -34 -41 -34 -3 0 -3
18 -1 40 l4 40 -53 0 -53 0 0 -245 0 -245 49 0 49 0 4 148 c3 130 7 152 26
183 33 54 91 76 154 59 68 -19 72 -32 78 -219 l5 -166 53 -3 52 -3 0 173 c-1
180 -9 228 -47 270 -41 45 -124 65 -200 47z"/>
<path d="M5993 365 l91 -246 54 3 54 3 63 179 62 180 30 -85 c17 -46 45 -128
63 -182 l32 -98 56 3 56 3 49 135 c27 74 66 183 88 243 l38 107 -53 0 -53 0
-59 -185 c-32 -102 -61 -185 -65 -185 -6 0 -119 339 -119 358 0 8 -21 12 -59
12 l-58 0 -58 -177 c-31 -98 -60 -182 -65 -186 -4 -5 -34 74 -67 175 l-60 183
-55 3 -56 3 91 -246z"/>
<path d="M8090 365 l0 -245 50 0 50 0 0 123 c0 67 5 140 11 161 13 46 56 93
93 100 14 4 37 8 51 11 22 5 25 10 25 50 l0 45 -36 0 c-40 0 -99 -31 -114 -61
-12 -21 -28 -25 -27 -6 2 64 0 67 -53 67 l-50 0 0 -245z"/>
<path d="M16431 376 c54 -130 99 -244 99 -254 0 -26 -37 -71 -66 -82 -14 -6
-35 -5 -54 2 -26 9 -33 8 -45 -8 -8 -11 -15 -22 -15 -26 0 -5 53 -8 118 -8
l118 0 109 272 c60 150 115 288 122 306 l13 32 -53 0 -53 0 -64 -180 c-36 -99
-68 -180 -71 -180 -3 0 -37 80 -76 178 l-70 177 -55 3 -56 3 99 -235z"/>
</g>
</svg>
